<svg width="30" height="26" viewBox="0 0 30 26" fill="none" xmlns="http://www.w3.org/2000/svg">
<path d="M19.8 12.5805C19.8 13.3767 19.5185 14.155 18.9911 14.817C18.4636 15.4791 17.714 15.9951 16.8369 16.2998C15.9598 16.6045 14.9947 16.6842 14.0636 16.5289C13.1325 16.3735 12.2772 15.9901 11.6059 15.4271C10.9346 14.8641 10.4774 14.1468 10.2922 13.3658C10.107 12.5849 10.2021 11.7755 10.5654 11.0399C10.9287 10.3043 11.5439 9.67553 12.3333 9.23317C13.1226 8.79082 14.0507 8.55471 15 8.55471C16.2718 8.55803 17.4904 8.98324 18.3897 9.73749C19.2891 10.4917 19.796 11.5138 19.8 12.5805ZM30 7.04506V18.1159C30 19.9843 29.115 21.7763 27.5397 23.0975C25.9644 24.4187 23.8278 25.1609 21.6 25.1609H8.4C6.17218 25.1609 4.03561 24.4187 2.4603 23.0975C0.884997 21.7763 0 19.9843 0 18.1159V7.04506C0 5.17659 0.884997 3.38465 2.4603 2.06345C4.03561 0.742245 6.17218 0 8.4 0H21.6C23.8278 0 25.9644 0.742245 27.5397 2.06345C29.115 3.38465 30 5.17659 30 7.04506ZM22.2 12.5805C22.2 11.3861 21.7777 10.2186 20.9866 9.22558C20.1954 8.23254 19.0709 7.45855 17.7553 7.0015C16.4397 6.54445 14.992 6.42487 13.5954 6.65787C12.1987 6.89087 10.9158 7.46599 9.90883 8.31051C8.90189 9.15503 8.21616 10.231 7.93835 11.4024C7.66053 12.5738 7.80312 13.7879 8.34807 14.8913C8.89302 15.9948 9.81586 16.9379 10.9999 17.6014C12.1839 18.2649 13.576 18.6191 15 18.6191C16.9096 18.6191 18.7409 17.9829 20.0912 16.8504C21.4414 15.7179 22.2 14.182 22.2 12.5805ZM24.6 6.03862C24.6 5.74004 24.4944 5.44816 24.2966 5.1999C24.0989 4.95164 23.8177 4.75814 23.4888 4.64388C23.1599 4.52962 22.798 4.49972 22.4488 4.55797C22.0997 4.61622 21.7789 4.76 21.5272 4.97113C21.2755 5.18226 21.104 5.45126 21.0346 5.7441C20.9651 6.03695 21.0008 6.34049 21.137 6.61634C21.2733 6.89219 21.504 7.12797 21.8 7.29385C22.096 7.45974 22.444 7.54828 22.8 7.54828C23.2774 7.54828 23.7352 7.38922 24.0728 7.10611C24.4104 6.82299 24.6 6.43901 24.6 6.03862Z" fill="url(#paint0_linear_30_383)"/>
<defs>
<linearGradient id="paint0_linear_30_383" x1="15" y1="0" x2="15" y2="25.1609" gradientUnits="userSpaceOnUse">
<stop stop-color="#FA7E1E"/>
<stop offset="1" stop-color="#FEDA75" stop-opacity="0"/>
</linearGradient>
</defs>
</svg>
