<svg width="30" height="30" viewBox="0 0 30 30" fill="none" xmlns="http://www.w3.org/2000/svg">
<path d="M25.5393 3H5.21673C4.70341 3 4.21111 3.19754 3.84814 3.54917C3.48517 3.90081 3.28125 4.37772 3.28125 4.875V24.5625C3.28125 25.0598 3.48517 25.5367 3.84814 25.8883C4.21111 26.24 4.70341 26.4375 5.21673 26.4375H25.5393C26.0526 26.4375 26.5449 26.24 26.9079 25.8883C27.2709 25.5367 27.4748 25.0598 27.4748 24.5625V4.875C27.4748 4.37772 27.2709 3.90081 26.9079 3.54917C26.5449 3.19754 26.0526 3 25.5393 3ZM11.5071 20.3438C11.5071 20.5924 11.4051 20.8308 11.2236 21.0067C11.0421 21.1825 10.796 21.2812 10.5393 21.2812C10.2827 21.2812 10.0365 21.1825 9.85502 21.0067C9.67353 20.8308 9.57157 20.5924 9.57157 20.3438V12.8438C9.57157 12.5951 9.67353 12.3567 9.85502 12.1808C10.0365 12.005 10.2827 11.9062 10.5393 11.9062C10.796 11.9062 11.0421 12.005 11.2236 12.1808C11.4051 12.3567 11.5071 12.5951 11.5071 12.8438V20.3438ZM10.5393 10.5C10.2522 10.5 9.97156 10.4175 9.73284 10.263C9.49413 10.1085 9.30807 9.88886 9.1982 9.6319C9.08833 9.37494 9.05958 9.09219 9.11559 8.8194C9.1716 8.54662 9.30986 8.29605 9.51287 8.09938C9.71588 7.90271 9.97453 7.76878 10.2561 7.71452C10.5377 7.66026 10.8296 7.68811 11.0948 7.79454C11.3601 7.90098 11.5868 8.08122 11.7463 8.31248C11.9058 8.54374 11.9909 8.81562 11.9909 9.09375C11.9909 9.46671 11.838 9.8244 11.5658 10.0881C11.2935 10.3518 10.9243 10.5 10.5393 10.5ZM22.1522 20.3438C22.1522 20.5924 22.0503 20.8308 21.8688 21.0067C21.6873 21.1825 21.4411 21.2812 21.1845 21.2812C20.9278 21.2812 20.6817 21.1825 20.5002 21.0067C20.3187 20.8308 20.2167 20.5924 20.2167 20.3438V16.125C20.2167 15.5034 19.9618 14.9073 19.5081 14.4677C19.0544 14.0282 18.439 13.7812 17.7974 13.7812C17.1557 13.7812 16.5404 14.0282 16.0866 14.4677C15.6329 14.9073 15.378 15.5034 15.378 16.125V20.3438C15.378 20.5924 15.2761 20.8308 15.0946 21.0067C14.9131 21.1825 14.6669 21.2812 14.4103 21.2812C14.1536 21.2812 13.9075 21.1825 13.726 21.0067C13.5445 20.8308 13.4425 20.5924 13.4425 20.3438V12.8438C13.4419 12.613 13.529 12.3902 13.6874 12.2178C13.8457 12.0455 14.0641 11.9358 14.3007 11.9096C14.5374 11.8835 14.7756 11.9429 14.9699 12.0763C15.1642 12.2097 15.3009 12.4079 15.3538 12.6328C16.0087 12.2028 16.772 11.9537 17.562 11.9123C18.3519 11.8708 19.1386 12.0386 19.8375 12.3977C20.5364 12.7567 21.1212 13.2933 21.529 13.95C21.9368 14.6067 22.1522 15.3586 22.1522 16.125V20.3438Z" fill="#699BF7"/>
</svg>
