<svg width="40" height="40" viewBox="0 0 40 40" fill="none" xmlns="http://www.w3.org/2000/svg">
<path fill-rule="evenodd" clip-rule="evenodd" d="M0 5C0 3.67392 0.301019 2.40215 0.836838 1.46447C1.37266 0.526785 2.09938 0 2.85714 0H37.1429C37.9006 0 38.6273 0.526785 39.1632 1.46447C39.699 2.40215 40 3.67392 40 5C40 6.32608 39.699 7.59785 39.1632 8.53553C38.6273 9.47321 37.9006 10 37.1429 10H2.85714C2.09938 10 1.37266 9.47321 0.836838 8.53553C0.301019 7.59785 0 6.32608 0 5ZM0 35C0 33.6739 0.301019 32.4021 0.836838 31.4645C1.37266 30.5268 2.09938 30 2.85714 30H37.1429C37.9006 30 38.6273 30.5268 39.1632 31.4645C39.699 32.4021 40 33.6739 40 35C40 36.3261 39.699 37.5979 39.1632 38.5355C38.6273 39.4732 37.9006 40 37.1429 40H2.85714C2.09938 40 1.37266 39.4732 0.836838 38.5355C0.301019 37.5979 0 36.3261 0 35Z" fill="#023047"/>
</svg>
